<?xml version="1.0" encoding="iso-8859-1"?>
<!-- Generator: Adobe Illustrator 18.0.0, SVG Export Plug-In . SVG Version: 6.00 Build 0)  -->
<!DOCTYPE svg PUBLIC "-//W3C//DTD SVG 1.1//EN" "http://www.w3.org/Graphics/SVG/1.1/DTD/svg11.dtd">
<svg xmlns="http://www.w3.org/2000/svg" xmlns:xlink="http://www.w3.org/1999/xlink" version="1.1" id="Capa_1" x="0px" y="0px" viewBox="0 0 396.565 396.565" style="enable-background:new 0 0 396.565 396.565;" xml:space="preserve" width="512px" height="512px">
<path d="M269.928,39.91l67.717,62.583c24.528,22.668,40.863,53.327,45.996,86.328c0.552,3.547,3.874,5.977,7.422,5.424  c3.547-0.552,5.976-3.875,5.424-7.422c-5.583-35.887-23.346-69.227-50.019-93.877l-67.717-62.583  c-12.533-11.583-31.954-11.355-44.212,0.518c-6.242,6.046-9.717,14.16-9.787,22.85s3.276,16.858,9.42,23.002l35.958,35.958  c9.161,9.161,8.951,20.811,5.701,28.659c-3.251,7.848-11.34,16.233-24.295,16.233H32.02c-17.656,0-32.02,14.364-32.02,32.02  s14.364,32.02,32.02,32.02h89.497c-3.943,5.322-6.28,11.903-6.28,19.02c0,12.314,6.992,23.02,17.211,28.375  c-5.818,5.801-9.424,13.819-9.424,22.664c0,17.656,14.364,32.02,32.02,32.02h9.276c-3.943,5.322-6.28,11.903-6.28,19.02  c0,17.656,14.364,32.02,32.02,32.02h95.986c37.946,0,75.076-13.162,104.552-37.061c2.789-2.261,3.216-6.354,0.955-9.143  c-2.261-2.789-6.354-3.217-9.143-0.955c-27.167,22.027-61.39,34.158-96.364,34.158h-95.986c-10.488,0-19.02-8.532-19.02-19.02  s8.532-19.02,19.02-19.02h33.829c3.59,0,6.5-2.91,6.5-6.5s-2.91-6.5-6.5-6.5h-68.845c-10.487,0-19.02-8.532-19.02-19.02  s8.532-19.02,19.02-19.02h58.162c3.59,0,6.5-2.91,6.5-6.5s-2.91-6.5-6.5-6.5h-65.948c-10.488,0-19.02-8.532-19.02-19.02  c0-10.488,8.532-19.02,19.02-19.02h74.257c3.59,0,6.5-2.91,6.5-6.5s-2.91-6.5-6.5-6.5H32.02c-10.488,0-19.02-8.532-19.02-19.02  s8.532-19.02,19.02-19.02h219.516c16.196,0,30.108-9.295,36.306-24.259c6.198-14.963,2.934-31.373-8.519-42.826l-35.958-35.958  c-3.661-3.661-5.655-8.529-5.613-13.706s2.112-10.013,5.832-13.615C250.888,33.143,262.46,33.007,269.928,39.91z" fill="#FFFFFF"/>
<g>
</g>
<g>
</g>
<g>
</g>
<g>
</g>
<g>
</g>
<g>
</g>
<g>
</g>
<g>
</g>
<g>
</g>
<g>
</g>
<g>
</g>
<g>
</g>
<g>
</g>
<g>
</g>
<g>
</g>
</svg>
